<svg width="421" height="418" viewBox="0 0 421 418" fill="none" xmlns="http://www.w3.org/2000/svg">
<path d="M248.954 348.233C257.705 352.609 266.139 356.189 274.094 358.814C254.364 367.247 232.724 371.941 209.892 371.941C180.933 371.941 153.804 364.383 130.255 351.256C141.87 348.949 154.917 344.335 169.238 337.573C174.354 335.127 179.541 332.415 184.758 329.478C192.824 324.937 196.857 322.667 200.545 322.416C201.796 322.331 202.706 322.364 203.948 322.54C207.609 323.059 211.408 325.58 219.007 330.621C229.281 337.436 239.336 343.372 248.954 348.233Z" fill="#FBFBFB"/>
<path d="M46.4014 208.372C46.4014 185.38 51.1748 163.501 59.767 143.691C62.4719 152.125 66.2111 160.955 70.905 170.184C81.8043 191.824 97.7954 215.293 117.287 238.444C129.594 253.159 142.97 267.643 157.191 280.917C162.352 285.735 164.933 288.144 165.748 290.657C166.725 293.67 166.215 297.077 164.398 299.67C162.882 301.834 160.042 303.219 154.361 305.988C142.586 311.557 131.766 315.376 123.095 317.047C119.117 317.842 115.696 318.081 112.991 317.842C112.354 317.763 111.797 317.683 111.241 317.604C110.127 317.365 109.172 317.047 108.456 316.649C107.979 316.41 107.581 316.092 107.263 315.774C106.228 314.58 105.831 312.91 106.149 310.682C106.547 308.534 107.501 305.75 109.252 302.567C112.434 296.601 117.844 288.883 125.8 279.257C117.526 270.824 109.649 262.152 102.251 253.401C101.535 254.276 100.898 255.072 100.182 255.947C89.9987 268.199 83.1568 277.905 78.6221 286.338C76.3945 290.634 74.6442 294.612 73.4508 298.589C56.346 272.733 46.4014 241.706 46.4014 208.372Z" fill="#FBFBFB"/>
<path d="M286.505 262.63C285.71 251.094 292.233 239.399 298.837 230.568C306.713 241.786 313.316 252.765 318.567 263.107C325.568 276.95 329.625 289.122 330.819 299.306C332.012 309.887 329.784 317.922 324.534 323.093C319.442 328.264 311.327 330.492 300.746 329.378C290.563 328.185 278.39 324.048 264.547 317.126C254.205 311.955 243.226 305.272 232.008 297.396C240.76 290.713 252.614 284.11 264.229 284.906C281.334 285.94 311.248 309.648 311.248 309.648C311.248 309.648 287.619 279.814 286.505 262.63Z" fill="#FBFBFB"/>
<path d="M213.79 139.316C222.541 146.476 245.772 168.195 248.636 171.139C258.56 181.062 267.587 191.674 276.958 202.087C261.851 215.036 240.275 217.473 223.178 206.542C195.571 188.8 136.778 135.258 136.778 135.258C136.778 135.258 190.32 194.051 208.062 221.658C218.183 237.354 217.324 261.639 203.607 275.359C192.71 266.641 182.558 256.852 172.659 247.036C169.715 244.172 147.996 220.942 140.836 212.19C124.447 192.381 111.081 172.571 101.932 154.432C94.7722 140.35 90.5556 127.86 89.3623 117.517C88.0098 106.856 89.9987 98.7416 95.0904 93.4909C100.341 88.3196 108.456 86.4103 119.117 87.6832C129.459 88.9561 141.87 93.0931 156.031 100.253C174.17 109.641 193.98 123.007 213.79 139.316Z" fill="#FBFBFB"/>
<path d="M339.888 165.57C346.173 152.125 350.469 139.634 352.617 128.655C365.824 152.284 373.382 179.413 373.382 208.372C373.382 231.204 368.688 252.924 360.175 272.654C357.55 264.619 354.049 256.265 349.594 247.434C342.195 232.637 332.171 216.805 320.237 200.734C327.398 189.676 333.683 178.617 338.854 167.718C339.172 167.081 339.57 166.365 339.888 165.57Z" fill="#FBFBFB"/>
<path d="M278.297 151.978C272.557 146.008 269.687 143.023 269.336 139.505C269.231 138.452 269.295 137.346 269.521 136.312C270.275 132.858 273.325 130.343 279.425 125.314C285.55 120.222 290.881 116.085 295.495 112.982C298.677 110.834 301.542 109.084 304.008 107.732C307.19 106.061 309.975 105.027 312.123 104.629C314.35 104.311 316.021 104.629 317.214 105.743C318.408 106.777 319.124 108.686 319.362 111.391C319.601 114.096 319.362 117.517 318.567 121.495C317.135 129.133 313.952 138.361 309.497 148.385C309.418 148.704 309.179 149.101 309.02 149.42C308.543 150.533 307.986 151.647 307.508 152.761C304.485 159.126 300.905 165.649 297.086 172.173C290.818 165.2 284.599 158.532 278.297 151.978Z" fill="#FBFBFB"/>
<path d="M171.704 69.385C162.475 64.6911 153.645 60.9519 145.211 58.247C165.021 49.7344 186.82 44.9609 209.812 44.9609C243.146 44.9609 274.015 54.9056 299.871 72.0104C285.93 75.9935 271.681 84.9185 259.264 95.1006C249.044 103.482 243.933 107.673 239.508 108.351C237.933 108.593 237.005 108.617 235.42 108.46C230.964 108.019 226.028 104.394 216.156 97.1429C200.955 85.9786 185.954 76.5899 171.704 69.385Z" fill="#FBFBFB"/>
</svg>
